<?xml version="1.0" encoding="UTF-8"?>
<svg data-bbox="0 0 78.13 22.149" xmlns="http://www.w3.org/2000/svg" viewBox="0 0 79 23" height="23" width="79" data-type="color">
    <g>
        <path fill="#3E2B24" d="M18.088 21.868H0v-1.064q.98-.027 1.568-.168.616-.14.952-.476.337-.336.448-.952.112-.615.112-1.596V4.564q0-.98-.112-1.568-.084-.615-.392-.952-.279-.363-.84-.476-.56-.14-1.456-.196V.308h8.512v1.064q-.895.028-1.456.168-.531.14-.84.504-.28.365-.392 1.008-.084.645-.084 1.708v12.068q0 1.176.224 1.932.252.728.812 1.148.589.392 1.54.56.953.14 2.408.14 1.596 0 2.688-.168 1.092-.195 1.82-.644a3.26 3.26 0 0 0 1.176-1.288q.448-.84.756-2.156h1.064zm18.58-16.156q0 1.484-.476 2.66a4.76 4.76 0 0 1-1.512 1.988q-1.008.813-2.66 1.26-1.624.448-3.976.448h-2.52v5.404q0 1.036.112 1.708.14.644.532 1.008.42.364 1.176.504.784.112 2.044.112v1.064h-9.884v-1.064q.98-.027 1.568-.168.616-.14.952-.476t.448-.952q.112-.615.112-1.596V4.564q0-.98-.112-1.568-.084-.615-.392-.952-.28-.363-.84-.476-.56-.14-1.456-.196V.308h8.792q3.864 0 5.964 1.428 2.128 1.429 2.128 3.976m-11.144 4.956h1.988q2.8 0 4.144-1.064 1.372-1.092 1.372-3.556 0-2.38-1.092-3.388-1.065-1.035-3.36-1.036H26q-.476 0-.476.476zm12.855 11.2h-1.624L46.639.308h1.372zM53.116 8.372l.056.084q.42-.307 1.232-.504a6 6 0 0 1 1.624-.224q1.232 0 2.296.504 1.065.477 1.82 1.344.784.869 1.232 2.072.448 1.176.448 2.548 0 1.68-.644 3.136a7.8 7.8 0 0 1-1.736 2.52 8 8 0 0 1-2.604 1.68q-1.485.615-3.22.616a8 8 0 0 1-2.184-.28q-1.008-.308-1.736-.812a4 4 0 0 1-1.12-1.204 3.26 3.26 0 0 1-.392-1.568q0-.756.336-1.176.363-.42 1.008-.42.588 0 .868.308.308.309.476.784t.308 1.036q.14.532.392 1.008.28.476.756.784.504.308 1.372.308 1.092 0 1.96-.504.867-.532 1.456-1.484.588-.98.896-2.324.336-1.371.336-3.052 0-2.38-.672-3.5-.644-1.12-2.184-1.12-1.176 0-1.932.644-.729.616-1.204 2.016-.168.504-.308.644a.5.5 0 0 1-.364.14q-.615 0-.616-.56 0-.14.028-.224L54.096.028q.615.252 1.4.392.784.112 1.876.112 2.604 0 3.724-.532l.168.028q-.336 1.597-1.484 2.464-1.12.868-2.884.868h-2.464zm15.018 10.752h5.572q.672 0 1.176-.112.504-.14.896-.504.391-.364.7-.98.307-.644.616-1.624h1.036l-1.064 5.964h-13.02v-.924q3.192-2.856 5.236-4.984 2.072-2.155 3.248-3.864 1.176-1.708 1.624-3.136.448-1.455.448-2.94 0-2.184-1.036-3.444-1.008-1.26-2.772-1.26-1.68 0-2.744 1.092-1.035 1.092-1.036 2.828 0 1.511.812 2.408.84.897 2.268.896a1.74 1.74 0 0 1-.728 1.092q-.588.392-1.456.392a3.45 3.45 0 0 1-1.456-.308 3.7 3.7 0 0 1-1.148-.868 4.3 4.3 0 0 1-.756-1.316 5.6 5.6 0 0 1-.252-1.708q0-1.26.532-2.324a5.5 5.5 0 0 1 1.456-1.82A6.9 6.9 0 0 1 68.47.448 8.4 8.4 0 0 1 71.242 0q1.484 0 2.716.448 1.231.449 2.128 1.26a5.5 5.5 0 0 1 1.372 1.932q.504 1.092.504 2.436 0 1.736-.784 3.416-.756 1.652-2.1 3.276a29.4 29.4 0 0 1-3.136 3.164 67 67 0 0 1-3.836 3.052z" data-color="1"/>
    </g>
</svg>
